<svg width="13.333252" height="11.245483" viewBox="0 0 13.3333 11.2455" fill="none" xmlns="http://www.w3.org/2000/svg" xmlns:xlink="http://www.w3.org/1999/xlink">
	<desc>
			Created with Pixso.
	</desc>
	<defs/>
	<path id="矢量 291" d="M4 8.99C3.26 8.99 2.67 9.5 2.67 10.12C2.67 10.73 3.26 11.24 4 11.24C4.73 11.24 5.33 10.73 5.33 10.12C5.33 9.5 4.73 8.99 4 8.99ZM0 0L0 1.12L1.33 1.12L3.73 5.39L2.83 6.76C2.72 6.92 2.66 7.11 2.66 7.3C2.66 7.92 3.26 8.43 4 8.43L12 8.43L12 7.3L4.28 7.3C4.18 7.3 4.11 7.24 4.11 7.16L4.13 7.1L4.73 6.18L9.69 6.18C10.2 6.18 10.63 5.95 10.86 5.6L13.25 1.95C13.3 1.87 13.33 1.78 13.33 1.68C13.33 1.37 13.03 1.12 12.66 1.12L2.8 1.12L2.17 0L0 0ZM10.66 8.99C9.93 8.99 9.34 9.5 9.34 10.12C9.34 10.73 9.93 11.24 10.66 11.24C11.39 11.24 12 10.73 12 10.12C12 9.5 11.39 8.99 10.66 8.99Z" fill="#EFE7D2" fill-opacity="1.000000" fill-rule="evenodd"/>
</svg>
