<svg width="16.000000" height="16.586342" viewBox="0 0 16 16.5863" fill="none" xmlns="http://www.w3.org/2000/svg" xmlns:xlink="http://www.w3.org/1999/xlink">
	<desc>
			Created with Pixso.
	</desc>
	<defs/>
	<path id="矢量 90" d="M10.69 0L13.26 5.25L16 5.25L16 7.14L15.06 7.14L14.46 15.72C14.44 15.95 14.35 16.17 14.2 16.33C14.05 16.49 13.86 16.58 13.66 16.58L2.33 16.58C2.13 16.58 1.94 16.49 1.79 16.33C1.64 16.17 1.55 15.95 1.53 15.72L0.93 7.14L0 7.14L0 5.25L2.73 5.25L5.3 0L6.69 0.94L4.58 5.25L11.41 5.25L9.3 0.94L10.69 0L10.69 0ZM8.79 9.03L7.2 9.03L7.2 12.8L8.79 12.8L8.79 9.03ZM5.59 9.03L4 9.03L4 12.8L5.59 12.8L5.59 9.03ZM12 9.03L10.4 9.03L10.4 12.8L12 12.8L12 9.03Z" fill="#EFE7D2" fill-opacity="1.000000" fill-rule="evenodd"/>
</svg>
