<svg width="9.443359" height="8.505737" viewBox="0 0 9.44336 8.50574" fill="none" xmlns="http://www.w3.org/2000/svg" xmlns:xlink="http://www.w3.org/1999/xlink">
	<desc>
			Created with Pixso.
	</desc>
	<defs/>
	<path id="Fill 1" d="M0.71 7.77C0.22 7.28 -0.03 6.62 0 5.93C0.03 5.16 0.4 4.41 1.06 3.75L3.99 0.81C4.16 0.65 4.42 0.65 4.58 0.81C4.74 0.98 4.74 1.24 4.58 1.4L1.65 4.34C0.55 5.44 0.68 6.56 1.3 7.18C1.92 7.8 3.09 7.97 4.18 6.87L8.02 3.03C8.49 2.56 8.69 2.02 8.57 1.56C8.48 1.21 8.22 0.95 7.88 0.86C7.42 0.74 6.89 0.94 6.41 1.42L2.87 4.97C2.34 5.49 2.27 5.88 2.31 6.03C2.32 6.07 2.34 6.11 2.42 6.14C2.64 6.19 3.05 6.05 3.5 5.6L6.14 2.96C6.3 2.8 6.57 2.8 6.73 2.96C6.89 3.12 6.89 3.39 6.73 3.55L4.09 6.19C3.46 6.82 2.77 7.09 2.21 6.94C1.85 6.85 1.6 6.59 1.5 6.24C1.36 5.69 1.64 5.01 2.28 4.38L5.82 0.83C6.51 0.14 7.34 -0.14 8.1 0.06C8.73 0.23 9.2 0.71 9.37 1.34C9.58 2.1 9.3 2.93 8.61 3.62L4.77 7.46C3.34 8.89 1.64 8.7 0.71 7.77Z" fill="#5C5F62" fill-opacity="1.000000" fill-rule="evenodd"/>
</svg>
