<svg width="14.000000" height="14.000000" viewBox="0 0 14 14" fill="none" xmlns="http://www.w3.org/2000/svg" xmlns:xlink="http://www.w3.org/1999/xlink">
	<desc>
			Created with Pixso.
	</desc>
	<defs/>
	<path id="Primary fill" d="M7 14C10.85 14 14 10.85 14 7C14 3.14 10.85 0 7 0C3.14 0 0 3.14 0 7C0 10.85 3.14 14 7 14ZM7.7 9.8C7.7 10.18 7.38 10.5 7 10.5C6.61 10.5 6.29 10.18 6.29 9.8L6.29 7C6.29 6.61 6.61 6.3 7 6.3C7.38 6.3 7.7 6.61 7.7 7L7.7 9.8ZM7 3.5C6.61 3.5 6.29 3.81 6.29 4.19C6.29 4.58 6.61 4.9 7 4.9C7.38 4.9 7.7 4.58 7.7 4.19C7.7 3.81 7.38 3.5 7 3.5Z" fill="#EFE7D2" fill-opacity="1.000000" fill-rule="evenodd"/>
</svg>
