<svg width="15.989441" height="16.978889" viewBox="0 0 15.9894 16.9789" fill="none" xmlns="http://www.w3.org/2000/svg" xmlns:xlink="http://www.w3.org/1999/xlink">
	<desc>
			Created with Pixso.
	</desc>
	<defs/>
	<path id="person" d="M15.67 15.21C15.21 14.1 12.99 13.35 11.51 12.66C10.03 11.97 10.23 11.55 10.18 10.97C10.17 10.9 10.17 10.82 10.17 10.73C10.68 10.25 11.09 9.59 11.36 8.84C11.36 8.84 11.37 8.8 11.38 8.79C11.44 8.63 11.49 8.45 11.53 8.28C11.87 8.2 12.07 7.81 12.14 7.45C12.22 7.3 12.37 6.94 12.34 6.53C12.29 5.99 12.09 5.75 11.87 5.65L11.87 5.56C11.87 4.89 11.81 3.91 11.7 3.28C11.68 3.1 11.64 2.93 11.59 2.75C11.37 1.97 10.92 1.26 10.31 0.77C9.67 0.27 8.78 0 7.99 0C7.2 0 6.31 0.26 5.68 0.77C5.07 1.27 4.62 1.97 4.4 2.75C4.35 2.93 4.31 3.1 4.29 3.28C4.17 3.91 4.12 4.88 4.12 5.56L4.12 5.64C3.88 5.74 3.67 5.98 3.62 6.53C3.59 6.93 3.75 7.29 3.82 7.44C3.9 7.81 4.1 8.2 4.45 8.27C4.49 8.45 4.54 8.62 4.6 8.79C4.6 8.8 4.61 8.81 4.61 8.82L4.62 8.83C4.89 9.59 5.32 10.26 5.84 10.74C5.84 10.82 5.83 10.89 5.83 10.96C5.78 11.54 5.93 11.96 4.46 12.65C2.98 13.34 0.76 14.09 0.3 15.2C-0.16 16.32 0.03 16.97 0.03 16.97L15.95 16.97C15.94 16.98 16.13 16.33 15.67 15.21Z" fill="#EFE7D2" fill-opacity="1.000000" fill-rule="evenodd"/>
</svg>
