<svg width="20.000000" height="20.000000" viewBox="0 0 20 20" fill="none" xmlns="http://www.w3.org/2000/svg" xmlns:xlink="http://www.w3.org/1999/xlink">
	<desc>
			Created with Pixso.
	</desc>
	<defs/>
	<path id="Shape" d="M20 10C20 15.52 15.52 20 10 20C4.47 20 0 15.52 0 10C0 4.47 4.47 0 10 0C15.52 0 20 4.47 20 10ZM6.69 9.08C5.69 9.52 4.66 9.97 3.72 10.48C3.23 10.84 3.88 11.1 4.49 11.34C4.59 11.38 4.69 11.41 4.78 11.45C4.85 11.47 4.93 11.5 5.01 11.52C5.69 11.74 6.45 11.98 7.11 11.62C8.2 10.99 9.22 10.27 10.25 9.55C10.58 9.31 10.92 9.08 11.26 8.84C11.27 8.83 11.29 8.82 11.31 8.81C11.6 8.62 12.25 8.2 12.01 8.78C11.44 9.4 10.83 9.95 10.22 10.5C9.81 10.87 9.4 11.24 9 11.64C8.65 11.93 8.28 12.5 8.68 12.9C9.58 13.53 10.5 14.15 11.42 14.77C11.72 14.97 12.01 15.17 12.31 15.37C12.82 15.77 13.61 15.45 13.72 14.82C13.77 14.53 13.82 14.24 13.87 13.95C14.14 12.34 14.41 10.74 14.66 9.13C14.69 8.88 14.73 8.63 14.76 8.38C14.85 7.77 14.95 7.15 14.97 6.54C14.9 5.93 14.16 6.06 13.74 6.2C11.62 7.01 9.51 7.88 7.41 8.76C7.17 8.87 6.93 8.97 6.69 9.08Z" fill="#EFE7D2" fill-opacity="1.000000" fill-rule="evenodd"/>
</svg>
