<svg width="10.000000" height="13.000000" viewBox="0 0 10 13" fill="none" xmlns="http://www.w3.org/2000/svg" xmlns:xlink="http://www.w3.org/1999/xlink">
	<desc>
			Created with Pixso.
	</desc>
	<defs>
		<clipPath id="clip25_1078">
			<rect id="trash" width="10.000000" height="13.000000" fill="white" fill-opacity="0"/>
		</clipPath>
	</defs>
	<rect id="trash" width="10.000000" height="13.000000" fill="#FFFFFF" fill-opacity="0"/>
	<g clip-path="url(#clip25_1078)">
		<path id="Vector" d="M9.16 2.43C9.16 2.43 9.16 2.02 7.5 1.78L7.5 1.21C7.48 0.54 6.91 0 6.22 0L3.72 0C3.04 0.01 2.5 0.55 2.5 1.21L2.5 1.78C1.86 1.84 1.28 2.07 0.82 2.44L0 2.43L0 3.25L10 3.25L10 2.43L9.16 2.43ZM3.33 1.21C3.33 0.99 3.52 0.81 3.75 0.81L6.25 0.81L6.25 0.81C6.48 0.81 6.67 0.99 6.69 1.21L6.69 1.67C6.39 1.63 6.05 1.62 5.71 1.62C5.61 1.62 5.51 1.62 5.41 1.62C4.95 1.62 3.69 1.62 3.33 1.68L3.33 1.21L3.33 1.21Z" fill="#EFE7D2" fill-opacity="1.000000" fill-rule="evenodd"/>
		<path id="Vector" d="M0 4.06L0 4.87L0.83 4.87L0.83 12.18C1.86 12.7 3.07 13 4.36 13C4.36 13 4.36 13 4.36 13L5.63 13C5.63 13 5.63 13 5.63 13C6.92 13 8.13 12.7 9.21 12.16L9.16 4.87L10 4.87L10 4.06L0 4.06L0 4.06ZM3.33 11.31C3.05 11.27 2.77 11.23 2.5 11.17L2.5 5.68L3.33 5.68L3.33 11.31ZM5.83 11.37L4.16 11.37L4.16 5.68L5.83 5.68L5.83 11.37ZM7.5 11.14C7.27 11.2 6.99 11.25 6.7 11.29L6.66 5.68L7.5 5.68L7.5 11.14L7.5 11.14Z" fill="#EFE7D2" fill-opacity="1.000000" fill-rule="evenodd"/>
	</g>
</svg>
