<svg width="20.000000" height="20.000000" viewBox="0 0 20 20" fill="none" xmlns="http://www.w3.org/2000/svg" xmlns:xlink="http://www.w3.org/1999/xlink">
	<desc>
			Created with Pixso.
	</desc>
	<defs/>
	<path id="Combined-Shape" d="M10 0C4.47705 0 0 4.47717 0 10C0 15.5228 4.47705 20 10 20C15.5229 20 20 15.5228 20 10C20 4.47717 15.5229 0 10 0ZM10.8142 13.1568C10.7156 13.2607 10.5232 13.2817 10.5232 13.2817L9.8855 13.2817C9.8855 13.2817 8.479 13.3647 7.23999 12.0988C5.88867 10.7177 4.69556 7.97736 4.69556 7.97736C4.69556 7.97736 4.62671 7.79761 4.70142 7.71106C4.7854 7.61328 5.0144 7.60712 5.0144 7.60712L6.53833 7.59741C6.53833 7.59741 6.68188 7.62042 6.78467 7.6947C6.86963 7.75616 6.91699 7.87036 6.91699 7.87036C6.91699 7.87036 7.16333 8.48181 7.4895 9.03485C8.12646 10.1149 8.42261 10.351 8.63867 10.2352C8.95386 10.0668 8.85938 8.70868 8.85938 8.70868C8.85938 8.70868 8.86523 8.216 8.70068 7.99634C8.57349 7.82629 8.3335 7.77661 8.22754 7.76282C8.1416 7.75153 8.28247 7.55591 8.46509 7.46832C8.7395 7.33673 9.22363 7.32904 9.7959 7.33466C10.2419 7.33929 10.3704 7.36646 10.5444 7.4079C10.949 7.50372 10.9363 7.81073 10.9089 8.47327C10.9009 8.67145 10.8914 8.90137 10.8914 9.16699C10.8914 9.22668 10.8896 9.29028 10.8879 9.35577C10.8784 9.69519 10.8674 10.0839 11.0955 10.2286C11.2124 10.3023 11.4976 10.2393 12.2119 9.04919C12.5505 8.48486 12.804 7.82172 12.804 7.82172C12.804 7.82172 12.8599 7.70337 12.9458 7.65271C13.0342 7.60095 13.1531 7.61688 13.1531 7.61688L14.7568 7.60712C14.7568 7.60712 15.2388 7.55029 15.3167 7.76434C15.3984 7.98816 15.1365 8.51147 14.4812 9.36877C13.8596 10.1822 13.5571 10.4817 13.585 10.7465C13.6052 10.9401 13.802 11.1151 14.1792 11.4587C15.0322 12.236 15.209 12.6145 15.2383 12.6616C15.5916 13.2367 14.8464 13.2817 14.8464 13.2817L13.4216 13.3012C13.4216 13.3012 13.116 13.3607 12.7131 13.0892C12.5022 12.9471 12.2961 12.7151 12.0996 12.4941C11.7998 12.1567 11.5227 11.8449 11.2864 11.9185C10.8894 12.0425 10.9014 12.8818 10.9014 12.8818C10.9014 12.8818 10.9045 13.0616 10.8142 13.1568Z" clip-rule="evenodd" fill="#EFE7D2" fill-opacity="1.000000" fill-rule="evenodd"/>
</svg>
