<svg width="20.000000" height="20.000000" viewBox="0 0 20 20" fill="none" xmlns="http://www.w3.org/2000/svg" xmlns:xlink="http://www.w3.org/1999/xlink">
	<desc>
			Created with Pixso.
	</desc>
	<defs/>
	<path id="Combined-Shape" d="M10 20C4.47 20 0 15.52 0 10C0 4.47 4.47 0 10 0C15.52 0 20 4.47 20 10C20 15.52 15.52 20 10 20ZM10.32 15.56C13.6 15.56 16.27 12.89 16.27 9.61C16.27 8.02 15.65 6.53 14.53 5.41C13.41 4.28 11.92 3.66 10.32 3.66C7.05 3.66 4.38 6.33 4.38 9.61C4.38 10.66 4.65 11.68 5.17 12.58L4.33 15.66L7.48 14.83C8.35 15.31 9.33 15.56 10.32 15.56L10.32 15.56Z" fill="#EFE7D2" fill-opacity="1.000000" fill-rule="evenodd"/>
	<path id="Combined-Shape" d="M7.63 13.76L5.76 14.25L6.26 12.43L6.14 12.24C5.64 11.45 5.38 10.54 5.38 9.61C5.38 6.88 7.6 4.67 10.33 4.67C11.65 4.67 12.89 5.18 13.82 6.12C14.75 7.05 15.27 8.29 15.27 9.61C15.27 12.34 13.05 14.55 10.32 14.55L10.32 14.55C9.44 14.55 8.57 14.32 7.81 13.87L7.63 13.76ZM13.32 11.03C13.28 10.96 13.18 10.93 13.04 10.85C12.89 10.78 12.16 10.42 12.02 10.37C11.88 10.32 11.79 10.3 11.69 10.44C11.59 10.59 11.3 10.93 11.22 11.03C11.13 11.13 11.04 11.14 10.89 11.06C10.75 10.99 10.27 10.83 9.7 10.33C9.26 9.93 8.96 9.45 8.87 9.3C8.79 9.15 8.86 9.07 8.94 8.99C9 8.93 9.09 8.82 9.16 8.73C9.23 8.65 9.26 8.58 9.31 8.49C9.36 8.39 9.33 8.3 9.3 8.23C9.26 8.15 8.96 7.42 8.84 7.12C8.72 6.83 8.6 6.87 8.5 6.87C8.42 6.86 8.32 6.86 8.22 6.86C8.12 6.86 7.96 6.9 7.82 7.05C7.69 7.2 7.3 7.56 7.3 8.29C7.3 9.02 7.84 9.72 7.91 9.82C7.98 9.92 8.96 11.42 10.45 12.07C10.8 12.22 11.08 12.31 11.3 12.38C11.65 12.49 11.98 12.48 12.23 12.44C12.52 12.4 13.11 12.08 13.23 11.73C13.36 11.39 13.36 11.09 13.32 11.03Z" fill="#EFE7D2" fill-opacity="1.000000" fill-rule="evenodd"/>
</svg>
